<?xml version="1.0" encoding="UTF-8" standalone="no"?>
<!-- Created with Inkscape (http://www.inkscape.org/) -->

<svg
   width="500"
   height="200"
   viewBox="0 0 132.29167 52.916666"
   version="1.1"
   id="svg5"
   xml:space="preserve"
   inkscape:version="1.2.1 (9c6d41e, 2022-07-14)"
   sodipodi:docname="database_folder.svg"
   xmlns:inkscape="http://www.inkscape.org/namespaces/inkscape"
   xmlns:sodipodi="http://sodipodi.sourceforge.net/DTD/sodipodi-0.dtd"
   xmlns="http://www.w3.org/2000/svg"
   xmlns:svg="http://www.w3.org/2000/svg"><sodipodi:namedview
     id="namedview7"
     pagecolor="#ffffff"
     bordercolor="#000000"
     borderopacity="0.25"
     inkscape:showpageshadow="2"
     inkscape:pageopacity="0.0"
     inkscape:pagecheckerboard="0"
     inkscape:deskcolor="#d1d1d1"
     inkscape:document-units="mm"
     showgrid="false"
     inkscape:zoom="1.2077384"
     inkscape:cx="231.01029"
     inkscape:cy="149.86689"
     inkscape:window-width="1440"
     inkscape:window-height="916"
     inkscape:window-x="72"
     inkscape:window-y="38"
     inkscape:window-maximized="1"
     inkscape:current-layer="layer1" /><defs
     id="defs2" /><g
     inkscape:label="Calque 1"
     inkscape:groupmode="layer"
     id="layer1"><path
       d="m 89.46996,33.958983 q -0.228348,0 -0.399608,-0.17602 -0.171261,-0.17601 -0.171261,-0.394847 v -4.947535 q 0,-0.218825 0.171261,-0.394846 0.17126,-0.176021 0.399608,-0.176021 h 2.664055 l 0.570868,0.570867 h 3.234924 q 0.218832,0 0.39485,0.176021 0.176018,0.176021 0.176018,0.394846 v 4.376668 q 0,0.218837 -0.176018,0.394847 -0.176018,0.17602 -0.39485,0.17602 z m 0,-5.518402 v 4.947535 h 6.469847 v -4.376668 h -3.472785 l -0.570869,-0.570867 z m 0,0 v 4.947535 z"
       id="path132-4"
       style="stroke-width:0.190289" /><path
       d="m 89.46996,49.923285 q -0.228348,0 -0.399608,-0.17602 -0.171261,-0.176021 -0.171261,-0.394846 v -4.947536 q 0,-0.218836 0.171261,-0.394857 0.17126,-0.176009 0.399608,-0.176009 h 2.664055 l 0.570868,0.570866 h 3.234924 q 0.218832,0 0.39485,0.176021 0.176018,0.176009 0.176018,0.394846 v 4.376669 q 0,0.218825 -0.176018,0.394846 -0.176018,0.17602 -0.39485,0.17602 z m 0,-5.518402 v 4.947536 h 6.469847 V 44.97575 h -3.472785 l -0.570869,-0.570867 z m 0,0 v 4.947536 z"
       id="path132-8-7"
       style="stroke-width:0.190289" /><path
       d="m 71.115361,16.32694 q -0.218834,0 -0.394851,-0.176017 -0.176018,-0.176018 -0.176018,-0.394852 v -4.947529 q 0,-0.218834 0.176018,-0.394852 0.176017,-0.176017 0.394851,-0.176017 h 2.673568 l 0.570869,0.570869 h 3.225411 q 0.218832,0 0.39485,0.176017 0.176017,0.176018 0.176017,0.394852 h -4.043654 l -0.570868,-0.570869 h -2.426193 v 4.947529 l 0.970477,-3.805791 h 6.641108 l -1.01805,3.938995 q -0.05708,0.228348 -0.209319,0.333006 -0.152232,0.104657 -0.390093,0.104657 z m 0.599412,-0.570869 h 5.442283 l 0.799216,-3.234922 h -5.442283 z m 0,0 0.799216,-3.234922 z m -0.599412,-4.37666 v -0.570869 z"
       id="path141-3"
       style="stroke-width:0.190289" /><path
       d="m 79.567198,26.068489 q -0.218832,0 -0.394851,-0.176009 -0.176017,-0.176021 -0.176017,-0.394858 v -4.947529 q 0,-0.218832 0.176017,-0.394851 0.176019,-0.176018 0.394851,-0.176018 h 2.67357 l 0.570869,0.570869 h 3.225409 q 0.218833,0 0.39485,0.176018 0.176019,0.176019 0.176019,0.394854 H 82.56426 l -0.570869,-0.570872 h -2.426193 v 4.947529 l 0.970478,-3.80579 h 6.641108 l -1.018049,3.938995 q -0.05709,0.228338 -0.209319,0.333006 -0.152233,0.104679 -0.390095,0.104679 z m 0.599414,-0.570867 h 5.442283 l 0.799215,-3.234923 h -5.442283 z m 0,0 0.799215,-3.234923 z m -0.599414,-4.376657 v -0.570872 z"
       id="path141-3-4"
       style="stroke-width:0.190289" /><path
       d="m 79.567198,42.279892 q -0.218832,0 -0.394851,-0.176021 Q 78.99633,41.92785 78.99633,41.709025 V 36.76149 q 0,-0.218837 0.176017,-0.394846 0.176019,-0.176021 0.394851,-0.176021 h 2.67357 l 0.570869,0.570867 h 3.225409 q 0.218833,0 0.39485,0.17602 0.176019,0.17601 0.176019,0.394846 H 82.56426 L 81.993391,36.76149 h -2.426193 v 4.947535 l 0.970478,-3.805802 h 6.641108 l -1.018049,3.939006 q -0.05709,0.228349 -0.209319,0.333006 -0.152233,0.104679 -0.390095,0.104679 z m 0.599414,-0.570867 h 5.442283 L 86.40811,38.47409 h -5.442283 z m 0,0 0.799215,-3.234935 z M 79.567198,37.332356 V 36.76149 Z"
       id="path141-3-0"
       style="stroke-width:0.190289" /><path
       style="fill:none;stroke:#000000;stroke-width:0.586092;stroke-linecap:square;stroke-linejoin:round;stroke-dasharray:none;stroke-opacity:1"
       d="m 74.112421,16.32694 -0.465129,22.908306 h 5.306307"
       id="path407-8"
       sodipodi:nodetypes="ccc" /><text
       xml:space="preserve"
       style="font-size:2.53719px;font-family:Roboto;-inkscape-font-specification:'Roboto, Normal';fill:#000000;fill-opacity:1;stroke:none;stroke-width:0.586092;stroke-linecap:square;stroke-linejoin:round;stroke-dasharray:none;stroke-opacity:1"
       x="81.189819"
       y="13.925896"
       id="text1179-9"><tspan
         sodipodi:role="line"
         id="tspan1177-2"
         style="fill:#000000;fill-opacity:1;stroke:none;stroke-width:0.586092"
         x="81.189819"
         y="13.925896">Directory</tspan></text><text
       xml:space="preserve"
       style="font-size:2.53719px;font-family:Roboto;-inkscape-font-specification:'Roboto, Normal';fill:#000000;fill-opacity:1;stroke:none;stroke-width:0.586092;stroke-linecap:square;stroke-linejoin:round;stroke-dasharray:none;stroke-opacity:1"
       x="100.87064"
       y="31.608109"
       id="text3361-3"><tspan
         sodipodi:role="line"
         id="tspan3359-9"
         style="stroke-width:0.586092"
         x="100.87064"
         y="31.608109">ToolMap project folder 1</tspan></text><text
       xml:space="preserve"
       style="font-size:2.53719px;font-family:Roboto;-inkscape-font-specification:'Roboto, Normal';fill:#000000;fill-opacity:1;stroke:none;stroke-width:0.586092;stroke-linecap:square;stroke-linejoin:round;stroke-dasharray:none;stroke-opacity:1"
       x="101.41317"
       y="47.572395"
       id="text3361-0-0"><tspan
         sodipodi:role="line"
         id="tspan3359-5-5"
         style="stroke-width:0.586092"
         x="101.41317"
         y="47.572395">ToolMap project folder 2</tspan></text><g
       id="g4454"
       transform="matrix(0.71920487,0,0,0.71920487,-6.8646044,-14.641673)"><path
         d="m 26.865911,54.018692 q -0.3175,0 -0.555625,-0.24474 -0.238125,-0.24474 -0.238125,-0.54901 v -6.87917 q 0,-0.30427 0.238125,-0.54901 0.238125,-0.24474 0.555625,-0.24474 h 3.704167 l 0.79375,0.79375 h 4.497917 q 0.304271,0 0.54901,0.24474 0.24474,0.24474 0.24474,0.54901 v 6.08542 q 0,0.30427 -0.24474,0.54901 -0.244739,0.24474 -0.54901,0.24474 z m 0,-7.67292 v 6.87917 h 8.995834 v -6.08542 h -4.828646 l -0.79375,-0.79375 z m 0,0 v 6.87917 z"
         id="path132"
         style="stroke-width:0.264583" /><path
         d="m 26.865911,67.033778 q -0.3175,0 -0.555625,-0.244739 -0.238125,-0.24474 -0.238125,-0.54901 v -6.87917 q 0,-0.30427 0.238125,-0.54901 0.238125,-0.24474 0.555625,-0.24474 h 3.704167 l 0.79375,0.79375 h 4.497917 q 0.304271,0 0.54901,0.24474 0.24474,0.24474 0.24474,0.54901 v 6.08542 q 0,0.30427 -0.24474,0.54901 -0.244739,0.244739 -0.54901,0.244739 z m 0,-7.67292 v 6.87917 h 8.995834 v -6.08542 h -4.828646 l -0.79375,-0.79375 z m 0,0 v 6.87917 z"
         id="path132-8"
         style="stroke-width:0.264583" /><path
         d="m 26.865911,80.048865 q -0.3175,0 -0.555625,-0.24474 -0.238125,-0.24474 -0.238125,-0.54901 v -6.879169 q 0,-0.30427 0.238125,-0.54901 0.238125,-0.24474 0.555625,-0.24474 h 3.704167 l 0.79375,0.79375 h 4.497917 q 0.304271,0 0.54901,0.24474 0.24474,0.24474 0.24474,0.54901 v 6.085419 q 0,0.30427 -0.24474,0.54901 -0.244739,0.24474 -0.54901,0.24474 z m 0,-7.672919 v 6.879169 h 8.995834 v -6.085419 h -4.828646 l -0.79375,-0.79375 z m 0,0 v 6.879169 z"
         id="path132-3"
         style="stroke-width:0.264583" /><path
         d="m 15.488827,41.831625 q -0.304271,0 -0.54901,-0.244739 -0.24474,-0.24474 -0.24474,-0.549011 v -6.879166 q 0,-0.304271 0.24474,-0.549011 0.244739,-0.244739 0.54901,-0.244739 h 3.717396 l 0.79375,0.79375 h 4.484688 q 0.30427,0 0.54901,0.244739 0.24474,0.24474 0.24474,0.549011 h -5.622396 l -0.79375,-0.79375 h -3.373438 v 6.879166 l 1.349375,-5.291666 h 9.233959 l -1.415521,5.476875 q -0.07937,0.3175 -0.291042,0.46302 -0.211667,0.145521 -0.542396,0.145521 z m 0.833438,-0.79375 h 7.567083 l 1.11125,-4.497916 h -7.567083 z m 0,0 1.11125,-4.497916 z m -0.833438,-6.085416 v -0.79375 z"
         id="path141"
         style="stroke-width:0.264583" /><path
         style="fill:#78664e;stroke:#000000;stroke-width:0.814917;stroke-linecap:square;stroke-linejoin:round;stroke-dasharray:none;stroke-opacity:1"
         d="M 26.072159,49.785355 H 20.383618"
         id="path403" /><path
         style="fill:#78664e;stroke:#000000;stroke-width:0.814917;stroke-linecap:square;stroke-linejoin:round;stroke-dasharray:none;stroke-opacity:1"
         d="m 26.072159,62.800442 -6.188541,2e-6"
         id="path405"
         sodipodi:nodetypes="cc" /><path
         style="fill:none;stroke:#000000;stroke-width:0.814917;stroke-linecap:square;stroke-linejoin:round;stroke-dasharray:none;stroke-opacity:1"
         d="m 19.656013,41.831625 -0.179854,33.983906 h 6.596002"
         id="path407"
         sodipodi:nodetypes="ccc" /><text
         xml:space="preserve"
         style="font-size:3.52777px;font-family:Roboto;-inkscape-font-specification:'Roboto, Normal';fill:#000000;fill-opacity:1;stroke:none;stroke-width:0.814917;stroke-linecap:square;stroke-linejoin:round;stroke-dasharray:none;stroke-opacity:1"
         x="30.173954"
         y="39.075272"
         id="text1179"><tspan
           sodipodi:role="line"
           id="tspan1177"
           style="fill:#000000;fill-opacity:1;stroke:none;stroke-width:0.814917"
           x="30.173954"
           y="39.075272">Directory</tspan></text><text
         xml:space="preserve"
         style="font-size:3.52777px;font-family:Roboto;-inkscape-font-specification:'Roboto, Normal';fill:#000000;fill-opacity:1;stroke:none;stroke-width:0.814917;stroke-linecap:square;stroke-linejoin:round;stroke-dasharray:none;stroke-opacity:1"
         x="40.131355"
         y="50.749981"
         id="text3361"><tspan
           sodipodi:role="line"
           id="tspan3359"
           style="stroke-width:0.814917"
           x="40.131355"
           y="50.749981">ToolMap project folder 1</tspan></text><text
         xml:space="preserve"
         style="font-size:3.52777px;font-family:Roboto;-inkscape-font-specification:'Roboto, Normal';fill:#000000;fill-opacity:1;stroke:none;stroke-width:0.814917;stroke-linecap:square;stroke-linejoin:round;stroke-dasharray:none;stroke-opacity:1"
         x="40.131355"
         y="63.765068"
         id="text3361-0"><tspan
           sodipodi:role="line"
           id="tspan3359-5"
           style="stroke-width:0.814917"
           x="40.131355"
           y="63.765068">ToolMap project folder 2</tspan></text><text
         xml:space="preserve"
         style="font-size:3.52777px;font-family:Roboto;-inkscape-font-specification:'Roboto, Normal';fill:#000000;fill-opacity:1;stroke:none;stroke-width:0.814917;stroke-linecap:square;stroke-linejoin:round;stroke-dasharray:none;stroke-opacity:1"
         x="40.131355"
         y="76.780151"
         id="text3361-6"><tspan
           sodipodi:role="line"
           id="tspan3359-3"
           style="stroke-width:0.814917"
           x="40.131355"
           y="76.780151">ToolMap project folder 3</tspan></text></g><path
       style="fill:#000000;fill-opacity:1;stroke:#000000;stroke-width:0.586092;stroke-linecap:square;stroke-linejoin:round;stroke-dasharray:none;stroke-opacity:1"
       d="M 78.99633,23.023855 H 73.940339"
       id="path3543" /><circle
       id="path3594"
       style="fill:#000000;stroke:#000000;stroke-width:0.190289"
       cx="82.545021"
       cy="25.954723"
       r="0.044515021" /><path
       style="fill:#000000;fill-opacity:1;stroke:#000000;stroke-width:0.586092;stroke-linecap:square;stroke-linejoin:round;stroke-dasharray:none;stroke-opacity:1"
       d="m 82.545024,25.910219 0.139661,5.00413"
       id="path3596" /><path
       style="fill:#000000;fill-opacity:1;stroke:#000000;stroke-width:0.586092;stroke-linecap:square;stroke-linejoin:round;stroke-dasharray:none;stroke-opacity:1"
       d="M 88.899091,30.914349 H 82.684685"
       id="path3598" /><path
       style="fill:#000000;fill-opacity:1;stroke:#000000;stroke-width:0.586092;stroke-linecap:square;stroke-linejoin:round;stroke-dasharray:none;stroke-opacity:1"
       d="m 82.545024,42.167566 0.139661,5.00413"
       id="path3596-4" /><path
       style="fill:#000000;fill-opacity:1;stroke:#000000;stroke-width:0.586092;stroke-linecap:square;stroke-linejoin:round;stroke-dasharray:none;stroke-opacity:1"
       d="M 88.899091,47.171696 H 82.684685"
       id="path3598-8" /><text
       xml:space="preserve"
       style="font-size:2.53719px;font-family:Roboto;-inkscape-font-specification:'Roboto, Normal';fill:#000000;fill-opacity:1;stroke:none;stroke-width:0.586092;stroke-linecap:square;stroke-linejoin:round;stroke-dasharray:none;stroke-opacity:1"
       x="89.223495"
       y="23.667448"
       id="text1179-4"><tspan
         sodipodi:role="line"
         id="tspan1177-5"
         style="fill:#000000;fill-opacity:1;stroke:none;stroke-width:0.586092"
         x="89.223495"
         y="23.667448">Directory 1</tspan></text><text
       xml:space="preserve"
       style="font-size:2.53719px;font-family:Roboto;-inkscape-font-specification:'Roboto, Normal';fill:#000000;fill-opacity:1;stroke:none;stroke-width:0.586092;stroke-linecap:square;stroke-linejoin:round;stroke-dasharray:none;stroke-opacity:1"
       x="89.11499"
       y="39.878838"
       id="text1179-1"><tspan
         sodipodi:role="line"
         id="tspan1177-6"
         style="fill:#000000;fill-opacity:1;stroke:none;stroke-width:0.586092"
         x="89.11499"
         y="39.878838">Directory 2</tspan></text><path
       style="fill:#000000;fill-opacity:1;stroke:#000000;stroke-width:0.814917;stroke-linecap:square;stroke-linejoin:round;stroke-dasharray:none;stroke-opacity:1"
       d="M 62.441664,3.9752238 V 48.941443"
       id="path5182" /><ellipse
       style="fill:none;fill-opacity:1;stroke:#000000;stroke-width:0.566922;stroke-linecap:square;stroke-linejoin:round;stroke-dasharray:none;stroke-opacity:1"
       id="path5236"
       cx="31.964668"
       cy="5.5239358"
       rx="2.6941667"
       ry="2.8053761" /><text
       xml:space="preserve"
       style="font-style:normal;font-variant:normal;font-weight:normal;font-stretch:normal;font-size:4.54928px;font-family:Arial;-inkscape-font-specification:'Arial, Normal';font-variant-ligatures:normal;font-variant-caps:normal;font-variant-numeric:normal;font-variant-east-asian:normal;fill:#000000;fill-opacity:1;stroke:none;stroke-width:1.05089;stroke-linecap:square;stroke-linejoin:round;stroke-dasharray:none;stroke-opacity:1"
       x="30.869556"
       y="7.1488361"
       id="text5262"><tspan
         sodipodi:role="line"
         id="tspan5260"
         style="font-style:normal;font-variant:normal;font-weight:normal;font-stretch:normal;font-size:4.54928px;font-family:Arial;-inkscape-font-specification:'Arial, Normal';font-variant-ligatures:normal;font-variant-caps:normal;font-variant-numeric:normal;font-variant-east-asian:normal;fill:#000000;fill-opacity:1;stroke:none;stroke-width:1.05089"
         x="30.869556"
         y="7.1488361">1</tspan></text><ellipse
       style="fill:none;fill-opacity:1;stroke:#000000;stroke-width:0.566922;stroke-linecap:square;stroke-linejoin:round;stroke-dasharray:none;stroke-opacity:1"
       id="path5236-7"
       cx="101.73486"
       cy="5.5239363"
       rx="2.6941667"
       ry="2.8053761" /><text
       xml:space="preserve"
       style="font-style:normal;font-variant:normal;font-weight:normal;font-stretch:normal;font-size:4.54928px;font-family:Arial;-inkscape-font-specification:'Arial, Normal';font-variant-ligatures:normal;font-variant-caps:normal;font-variant-numeric:normal;font-variant-east-asian:normal;fill:#000000;fill-opacity:1;stroke:none;stroke-width:1.05089;stroke-linecap:square;stroke-linejoin:round;stroke-dasharray:none;stroke-opacity:1"
       x="100.73639"
       y="7.1488361"
       id="text5262-7"><tspan
         sodipodi:role="line"
         id="tspan5260-9"
         style="font-style:normal;font-variant:normal;font-weight:normal;font-stretch:normal;font-size:4.54928px;font-family:Arial;-inkscape-font-specification:'Arial, Normal';font-variant-ligatures:normal;font-variant-caps:normal;font-variant-numeric:normal;font-variant-east-asian:normal;fill:#000000;fill-opacity:1;stroke:none;stroke-width:1.05089"
         x="100.73639"
         y="7.1488361">2</tspan></text></g></svg>
