<?xml version="1.0" encoding="UTF-8" standalone="no"?>
<!-- Created with Inkscape (http://www.inkscape.org/) -->

<svg
   width="300"
   height="550"
   viewBox="0 0 79.375002 145.52083"
   version="1.1"
   id="svg5"
   xml:space="preserve"
   inkscape:version="1.2.1 (9c6d41e, 2022-07-14)"
   sodipodi:docname="folder_structure.svg"
   xmlns:inkscape="http://www.inkscape.org/namespaces/inkscape"
   xmlns:sodipodi="http://sodipodi.sourceforge.net/DTD/sodipodi-0.dtd"
   xmlns="http://www.w3.org/2000/svg"
   xmlns:svg="http://www.w3.org/2000/svg"><sodipodi:namedview
     id="namedview7"
     pagecolor="#ffffff"
     bordercolor="#000000"
     borderopacity="0.25"
     inkscape:showpageshadow="2"
     inkscape:pageopacity="0.0"
     inkscape:pagecheckerboard="0"
     inkscape:deskcolor="#d1d1d1"
     inkscape:document-units="mm"
     showgrid="false"
     inkscape:zoom="1.2077384"
     inkscape:cx="98.531273"
     inkscape:cy="303.04576"
     inkscape:window-width="1440"
     inkscape:window-height="916"
     inkscape:window-x="72"
     inkscape:window-y="38"
     inkscape:window-maximized="1"
     inkscape:current-layer="layer1" /><defs
     id="defs2" /><g
     inkscape:label="Calque 1"
     inkscape:groupmode="layer"
     id="layer1"><path
       d="m 22.760767,26.458333 q -0.228348,0 -0.399608,-0.17602 -0.171261,-0.17601 -0.171261,-0.394847 v -4.947535 q 0,-0.218825 0.171261,-0.394846 0.17126,-0.176021 0.399608,-0.176021 h 2.664055 l 0.570868,0.570867 h 3.234924 q 0.218832,0 0.39485,0.176021 0.176018,0.176021 0.176018,0.394846 v 4.376668 q 0,0.218837 -0.176018,0.394847 -0.176018,0.17602 -0.39485,0.17602 z m 0,-5.518402 v 4.947535 h 6.469847 V 21.510798 H 25.757829 L 25.18696,20.939931 Z m 0,0 v 4.947535 z"
       id="path132-4"
       style="stroke-width:0.190289" /><path
       d="m 4.4061695,8.8262907 q -0.218834,0 -0.394851,-0.176017 -0.176018,-0.176018 -0.176018,-0.394852 v -4.947529 q 0,-0.218834 0.176018,-0.394852 0.176017,-0.176017 0.394851,-0.176017 h 2.673568 l 0.570869,0.570869 h 3.2254095 q 0.218832,0 0.39485,0.176017 0.176017,0.176018 0.176017,0.394852 H 7.4032305 l -0.570868,-0.570869 h -2.426193 v 4.947529 l 0.970477,-3.805791 h 6.6411065 l -1.01805,3.938995 q -0.05708,0.228348 -0.209319,0.333006 -0.152232,0.104657 -0.390093,0.104657 z m 0.599412,-0.570869 h 5.4422815 l 0.799216,-3.234922 H 5.8047975 Z m 0,0 0.799216,-3.234922 z m -0.599412,-4.37666 v -0.570869 z"
       id="path141-3"
       style="stroke-width:0.190289" /><path
       d="m 12.858005,18.567839 q -0.218832,0 -0.394851,-0.176009 -0.176017,-0.176021 -0.176017,-0.394858 v -4.947528 q 0,-0.218832 0.176017,-0.394851 0.176019,-0.176018 0.394851,-0.176018 h 2.67357 l 0.570869,0.570869 h 3.225409 q 0.218833,0 0.39485,0.176018 0.176019,0.176019 0.176019,0.394854 h -4.043655 l -0.570869,-0.570872 h -2.426193 v 4.947528 l 0.970478,-3.805789 h 6.641108 l -1.018049,3.938994 q -0.05709,0.228338 -0.209319,0.333006 -0.152233,0.104679 -0.390095,0.104679 z m 0.599414,-0.570867 h 5.442283 l 0.799215,-3.234922 h -5.442283 z m 0,0 0.799215,-3.234922 z m -0.599414,-4.376656 v -0.570872 z"
       id="path141-3-4"
       style="stroke-width:0.190289" /><path
       d="m 12.851806,52.330969 q -0.218832,0 -0.394851,-0.176021 -0.176017,-0.176021 -0.176017,-0.394846 v -4.947535 q 0,-0.218837 0.176017,-0.394846 0.176019,-0.176021 0.394851,-0.176021 h 2.67357 l 0.570869,0.570867 h 3.225409 q 0.218833,0 0.39485,0.17602 0.176019,0.17601 0.176019,0.394846 h -4.043655 l -0.570869,-0.570866 h -2.426193 v 4.947535 L 13.822284,47.9543 h 6.641108 l -1.018049,3.939006 q -0.05709,0.228349 -0.209319,0.333006 -0.152233,0.104679 -0.390095,0.104679 z m 0.599414,-0.570867 h 5.442283 l 0.799215,-3.234935 h -5.442283 z m 0,0 0.799215,-3.234935 z m -0.599414,-4.376669 v -0.570866 z"
       id="path141-3-0"
       style="stroke-width:0.190289" /><path
       d="m 22.477009,60.050868 q -0.218832,0 -0.394851,-0.176021 -0.176017,-0.176021 -0.176017,-0.394846 v -4.947535 q 0,-0.218837 0.176017,-0.394846 0.176019,-0.176021 0.394851,-0.176021 h 2.67357 l 0.570869,0.570867 h 3.225409 q 0.218833,0 0.39485,0.17602 0.176019,0.17601 0.176019,0.394846 h -4.043655 l -0.570869,-0.570866 h -2.426193 v 4.947535 l 0.970478,-3.805802 h 6.641108 l -1.018049,3.939006 q -0.05709,0.228349 -0.209319,0.333006 -0.152233,0.104679 -0.390095,0.104679 z m 0.599414,-0.570867 h 5.442283 l 0.799215,-3.234935 h -5.442283 z m 0,0 0.799215,-3.234935 z m -0.599414,-4.376669 v -0.570866 z"
       id="path141-3-0-0"
       style="stroke-width:0.190289" /><path
       style="fill:none;stroke:#000000;stroke-width:0.586092;stroke-linecap:square;stroke-linejoin:round;stroke-dasharray:none;stroke-opacity:1"
       d="M 7.4032295,8.8262907 6.9746325,49.286335 h 5.3063055"
       id="path407-8"
       sodipodi:nodetypes="ccc" /><text
       xml:space="preserve"
       style="font-size:2.53719px;font-family:Roboto;-inkscape-font-specification:'Roboto, Normal';fill:#000000;fill-opacity:1;stroke:none;stroke-width:0.586092;stroke-linecap:square;stroke-linejoin:round;stroke-dasharray:none;stroke-opacity:1"
       x="14.480626"
       y="6.4252453"
       id="text1179-9"><tspan
         sodipodi:role="line"
         id="tspan1177-2"
         style="fill:#000000;fill-opacity:1;stroke:none;stroke-width:0.586092"
         x="14.480626"
         y="6.4252453">Directory</tspan></text><text
       xml:space="preserve"
       style="font-size:2.53719px;font-family:Roboto;-inkscape-font-specification:'Roboto, Normal';fill:#000000;fill-opacity:1;stroke:none;stroke-width:0.586092;stroke-linecap:square;stroke-linejoin:round;stroke-dasharray:none;stroke-opacity:1"
       x="34.161446"
       y="24.107458"
       id="text3361-3"><tspan
         sodipodi:role="line"
         id="tspan3359-9"
         style="stroke-width:0.586092"
         x="34.161446"
         y="24.107458">ToolMap project alpha</tspan></text><text
       xml:space="preserve"
       style="font-size:2.53719px;font-family:Roboto;-inkscape-font-specification:'Roboto, Normal';fill:#000000;fill-opacity:1;stroke:none;stroke-width:0.586092;stroke-linecap:square;stroke-linejoin:round;stroke-dasharray:none;stroke-opacity:1"
       x="32.499611"
       y="57.778381"
       id="text3361-0-0"><tspan
         sodipodi:role="line"
         id="tspan3359-5-5"
         style="stroke-width:0.586092"
         x="32.499611"
         y="57.778381">alpha</tspan></text><path
       d="m 32.39605,68.132123 q -0.218832,0 -0.394851,-0.176021 -0.176017,-0.176021 -0.176017,-0.394846 v -4.947535 q 0,-0.218837 0.176017,-0.394846 0.176019,-0.176021 0.394851,-0.176021 h 2.67357 l 0.570869,0.570867 h 3.225409 q 0.218833,0 0.39485,0.17602 0.176019,0.17601 0.176019,0.394846 H 35.393112 L 34.822243,62.613721 H 32.39605 v 4.947535 l 0.970478,-3.805802 h 6.641108 l -1.018049,3.939006 q -0.05709,0.228349 -0.209319,0.333006 -0.152233,0.104679 -0.390095,0.104679 z m 0.599414,-0.570867 h 5.442283 l 0.799215,-3.234935 h -5.442283 z m 0,0 0.799215,-3.234935 z M 32.39605,63.184587 v -0.570866 z"
       id="path141-3-0-0-3"
       style="stroke-width:0.190289" /><text
       xml:space="preserve"
       style="font-size:2.53719px;font-family:Roboto;-inkscape-font-specification:'Roboto, Normal';fill:#000000;fill-opacity:1;stroke:none;stroke-width:0.586092;stroke-linecap:square;stroke-linejoin:round;stroke-dasharray:none;stroke-opacity:1"
       x="44.006153"
       y="65.859634"
       id="text3361-0-0-2"><tspan
         sodipodi:role="line"
         id="tspan3359-5-5-2"
         style="stroke-width:0.586092"
         x="44.006153"
         y="65.859634">Data</tspan></text><path
       d="m 32.39605,77.323347 q -0.218832,0 -0.394851,-0.176021 -0.176017,-0.176021 -0.176017,-0.394846 v -4.947535 q 0,-0.218837 0.176017,-0.394846 0.176019,-0.176021 0.394851,-0.176021 h 2.67357 l 0.570869,0.570867 h 3.225409 q 0.218833,0 0.39485,0.17602 0.176019,0.17601 0.176019,0.394846 H 35.393112 L 34.822243,71.804945 H 32.39605 v 4.947535 l 0.970478,-3.805802 h 6.641108 l -1.018049,3.939006 q -0.05709,0.228349 -0.209319,0.333006 -0.152233,0.104679 -0.390095,0.104679 z m 0.599414,-0.570867 h 5.442283 l 0.799215,-3.234935 h -5.442283 z m 0,0 0.799215,-3.234935 z M 32.39605,72.375811 v -0.570866 z"
       id="path141-3-0-0-3-5"
       style="stroke-width:0.190289" /><text
       xml:space="preserve"
       style="font-size:2.53719px;font-family:Roboto;-inkscape-font-specification:'Roboto, Normal';fill:#000000;fill-opacity:1;stroke:none;stroke-width:0.586092;stroke-linecap:square;stroke-linejoin:round;stroke-dasharray:none;stroke-opacity:1"
       x="44.006153"
       y="74.977821"
       id="text3361-0-0-2-1"><tspan
         sodipodi:role="line"
         id="tspan3359-5-5-2-3"
         style="stroke-width:0.586092"
         x="44.006153"
         y="74.977821">Export</tspan></text><path
       style="fill:#000000;fill-opacity:1;stroke:#000000;stroke-width:0.586092;stroke-linecap:square;stroke-linejoin:round;stroke-dasharray:none;stroke-opacity:1"
       d="M 12.287137,15.523206 H 7.2311475"
       id="path3543" /><circle
       id="path3594"
       style="fill:#000000;stroke:#000000;stroke-width:0.190289"
       cx="15.835826"
       cy="18.454073"
       r="0.044515021" /><path
       style="fill:#000000;fill-opacity:1;stroke:#000000;stroke-width:0.586092;stroke-linecap:square;stroke-linejoin:round;stroke-dasharray:none;stroke-opacity:1"
       d="m 15.835831,18.409569 0.139661,21.899934"
       id="path3596"
       sodipodi:nodetypes="cc" /><path
       style="fill:#000000;fill-opacity:1;stroke:#000000;stroke-width:0.586092;stroke-linecap:square;stroke-linejoin:round;stroke-dasharray:none;stroke-opacity:1"
       d="M 22.189898,23.413699 H 15.975492"
       id="path3598" /><path
       d="m 22.760767,35.029349 q -0.228348,0 -0.399608,-0.17602 -0.171261,-0.17601 -0.171261,-0.394847 v -4.947535 q 0,-0.218825 0.171261,-0.394846 0.17126,-0.176021 0.399608,-0.176021 h 2.664055 l 0.570868,0.570867 h 3.234924 q 0.218832,0 0.39485,0.176021 0.176018,0.176021 0.176018,0.394846 v 4.376668 q 0,0.218837 -0.176018,0.394847 -0.176018,0.17602 -0.39485,0.17602 z m 0,-5.518402 v 4.947535 h 6.469847 V 30.081814 H 25.757829 L 25.18696,29.510947 Z m 0,0 v 4.947535 z"
       id="path132-4-8"
       style="stroke-width:0.190289" /><text
       xml:space="preserve"
       style="font-size:2.53719px;font-family:Roboto;-inkscape-font-specification:'Roboto, Normal';fill:#000000;fill-opacity:1;stroke:none;stroke-width:0.586092;stroke-linecap:square;stroke-linejoin:round;stroke-dasharray:none;stroke-opacity:1"
       x="34.161446"
       y="32.678474"
       id="text3361-3-3"><tspan
         sodipodi:role="line"
         id="tspan3359-9-7"
         style="stroke-width:0.586092"
         x="34.161446"
         y="32.678474">ToolMap project beta</tspan></text><path
       style="fill:#000000;fill-opacity:1;stroke:#000000;stroke-width:0.586092;stroke-linecap:square;stroke-linejoin:round;stroke-dasharray:none;stroke-opacity:1"
       d="M 22.189898,31.984715 H 15.975492"
       id="path3598-0" /><path
       d="m 22.760767,43.354137 q -0.228348,0 -0.399608,-0.17602 -0.171261,-0.17601 -0.171261,-0.394847 v -4.947535 q 0,-0.218825 0.171261,-0.394846 0.17126,-0.176021 0.399608,-0.176021 h 2.664055 l 0.570868,0.570867 h 3.234924 q 0.218832,0 0.39485,0.176021 0.176018,0.176021 0.176018,0.394846 v 4.376668 q 0,0.218837 -0.176018,0.394847 -0.176018,0.17602 -0.39485,0.17602 z m 0,-5.518402 v 4.947535 h 6.469847 V 38.406602 H 25.757829 L 25.18696,37.835735 Z m 0,0 v 4.947535 z"
       id="path132-4-8-1"
       style="stroke-width:0.190289" /><text
       xml:space="preserve"
       style="font-size:2.53719px;font-family:Roboto;-inkscape-font-specification:'Roboto, Normal';fill:#000000;fill-opacity:1;stroke:none;stroke-width:0.586092;stroke-linecap:square;stroke-linejoin:round;stroke-dasharray:none;stroke-opacity:1"
       x="34.161446"
       y="41.003265"
       id="text3361-3-3-9"><tspan
         sodipodi:role="line"
         id="tspan3359-9-7-5"
         style="stroke-width:0.586092"
         x="34.161446"
         y="41.003265">ToolMap project ...</tspan></text><path
       style="fill:#000000;fill-opacity:1;stroke:#000000;stroke-width:0.586092;stroke-linecap:square;stroke-linejoin:round;stroke-dasharray:none;stroke-opacity:1"
       d="M 22.189898,40.309503 H 15.975492"
       id="path3598-0-7" /><path
       style="fill:#000000;fill-opacity:1;stroke:#000000;stroke-width:0.586092;stroke-linecap:square;stroke-linejoin:round;stroke-dasharray:none;stroke-opacity:1"
       d="m 15.829632,52.218643 0.139661,5.004131"
       id="path3596-4" /><path
       style="fill:#000000;fill-opacity:1;stroke:#000000;stroke-width:0.586092;stroke-linecap:square;stroke-linejoin:round;stroke-dasharray:none;stroke-opacity:1"
       d="M 22.183699,57.222774 H 15.969293"
       id="path3598-8" /><path
       style="fill:#000000;fill-opacity:1;stroke:#000000;stroke-width:0.586092;stroke-linecap:square;stroke-linejoin:round;stroke-dasharray:none;stroke-opacity:1"
       d="m 25.471115,60.083357 0.139661,32.577808"
       id="path3596-4-0"
       sodipodi:nodetypes="cc" /><path
       style="fill:#000000;fill-opacity:1;stroke:#000000;stroke-width:0.586092;stroke-linecap:square;stroke-linejoin:round;stroke-dasharray:none;stroke-opacity:1"
       d="M 31.825182,65.087488 H 25.610776"
       id="path3598-8-3" /><path
       style="fill:#000000;fill-opacity:1;stroke:#000000;stroke-width:0.586092;stroke-linecap:square;stroke-linejoin:round;stroke-dasharray:none;stroke-opacity:1"
       d="M 31.825182,74.278712 H 25.610776"
       id="path3598-8-3-8" /><path
       style="fill:#000000;fill-opacity:1;stroke:#000000;stroke-width:0.586092;stroke-linecap:square;stroke-linejoin:round;stroke-dasharray:none;stroke-opacity:1"
       d="M 31.825182,83.469948 H 25.610776"
       id="path3598-8-3-4" /><path
       style="fill:#000000;fill-opacity:1;stroke:#000000;stroke-width:0.586092;stroke-linecap:square;stroke-linejoin:round;stroke-dasharray:none;stroke-opacity:1"
       d="M 31.825182,92.661165 H 25.610776"
       id="path3598-8-3-5" /><path
       style="fill:#000000;fill-opacity:1;stroke:#000000;stroke-width:0.586092;stroke-linecap:square;stroke-linejoin:round;stroke-dasharray:none;stroke-opacity:1"
       d="M 31.825182,119.27813 H 25.610776"
       id="path3598-8-3-8-2" /><path
       style="fill:#000000;fill-opacity:1;stroke:#000000;stroke-width:0.586092;stroke-linecap:square;stroke-linejoin:round;stroke-dasharray:none;stroke-opacity:1"
       d="M 31.825182,128.46937 H 25.610776"
       id="path3598-8-3-4-9" /><path
       style="fill:#000000;fill-opacity:1;stroke:#000000;stroke-width:0.586092;stroke-linecap:square;stroke-linejoin:round;stroke-dasharray:none;stroke-opacity:1"
       d="M 31.825182,137.66059 H 25.610776"
       id="path3598-8-3-5-0" /><text
       xml:space="preserve"
       style="font-size:2.53719px;font-family:Roboto;-inkscape-font-specification:'Roboto, Normal';fill:#000000;fill-opacity:1;stroke:none;stroke-width:0.586092;stroke-linecap:square;stroke-linejoin:round;stroke-dasharray:none;stroke-opacity:1"
       x="22.514299"
       y="16.166798"
       id="text1179-4"><tspan
         sodipodi:role="line"
         id="tspan1177-5"
         style="fill:#000000;fill-opacity:1;stroke:none;stroke-width:0.586092"
         x="22.514299"
         y="16.166798">toolmap_projects</tspan></text><text
       xml:space="preserve"
       style="font-size:2.53719px;font-family:Roboto;-inkscape-font-specification:'Roboto, Normal';fill:#000000;fill-opacity:1;stroke:none;stroke-width:0.586092;stroke-linecap:square;stroke-linejoin:round;stroke-dasharray:none;stroke-opacity:1"
       x="22.399595"
       y="49.92992"
       id="text1179-1"><tspan
         sodipodi:role="line"
         id="tspan1177-6"
         style="fill:#000000;fill-opacity:1;stroke:none;stroke-width:0.586092"
         x="22.399595"
         y="49.92992">toolmap_data</tspan></text><path
       d="m 32.39605,86.514571 q -0.218832,0 -0.394851,-0.17602 -0.176017,-0.17602 -0.176017,-0.39484 v -4.947539 q 0,-0.218837 0.176017,-0.394846 0.176019,-0.176021 0.394851,-0.176021 h 2.67357 l 0.570869,0.570867 h 3.225409 q 0.218833,0 0.39485,0.17602 0.176019,0.17601 0.176019,0.394846 H 35.393112 L 34.822243,80.996172 H 32.39605 v 4.947539 l 0.970478,-3.805806 h 6.641108 l -1.018049,3.939006 q -0.05709,0.22835 -0.209319,0.33301 -0.152233,0.10467 -0.390095,0.10467 z m 0.599414,-0.57086 h 5.442283 l 0.799215,-3.234939 h -5.442283 z m 0,0 0.799215,-3.234939 z M 32.39605,81.567038 v -0.570866 z"
       id="path141-3-0-0-3-9"
       style="stroke-width:0.190289" /><text
       xml:space="preserve"
       style="font-size:2.53719px;font-family:Roboto;-inkscape-font-specification:'Roboto, Normal';fill:#000000;fill-opacity:1;stroke:none;stroke-width:0.586092;stroke-linecap:square;stroke-linejoin:round;stroke-dasharray:none;stroke-opacity:1"
       x="44.006153"
       y="84.390862"
       id="text3361-0-0-2-5"><tspan
         sodipodi:role="line"
         id="tspan3359-5-5-2-31"
         style="stroke-width:0.586092"
         x="44.006153"
         y="84.390862">Backup</tspan></text><path
       d="m 32.39605,95.705795 q -0.218832,0 -0.394851,-0.17602 -0.176017,-0.17602 -0.176017,-0.39484 v -4.947539 q 0,-0.218837 0.176017,-0.394846 0.176019,-0.176021 0.394851,-0.176021 h 2.67357 l 0.570869,0.570867 h 3.225409 q 0.218833,0 0.39485,0.17602 0.176019,0.17601 0.176019,0.394846 H 35.393112 L 34.822243,90.187396 H 32.39605 v 4.947539 l 0.970478,-3.805806 h 6.641108 l -1.018049,3.939006 q -0.05709,0.22835 -0.209319,0.33301 -0.152233,0.10467 -0.390095,0.10467 z m 0.599414,-0.57086 h 5.442283 l 0.799215,-3.234939 h -5.442283 z m 0,0 0.799215,-3.234939 z M 32.39605,90.758262 v -0.570866 z"
       id="path141-3-0-0-3-9-0"
       style="stroke-width:0.190289" /><text
       xml:space="preserve"
       style="font-size:2.53719px;font-family:Roboto;-inkscape-font-specification:'Roboto, Normal';fill:#000000;fill-opacity:1;stroke:none;stroke-width:0.586092;stroke-linecap:square;stroke-linejoin:round;stroke-dasharray:none;stroke-opacity:1"
       x="44.006153"
       y="93.962471"
       id="text3361-0-0-2-5-6"><tspan
         sodipodi:role="line"
         id="tspan3359-5-5-2-31-1"
         style="stroke-width:0.586092"
         x="44.006153"
         y="93.962471">Misc</tspan></text><path
       d="m 22.477009,105.0503 q -0.218832,0 -0.394851,-0.17602 -0.176017,-0.17602 -0.176017,-0.39485 V 99.5319 q 0,-0.218837 0.176017,-0.394846 0.176019,-0.176021 0.394851,-0.176021 h 2.67357 l 0.570869,0.570867 h 3.225409 q 0.218833,0 0.39485,0.17602 0.176019,0.17601 0.176019,0.39485 H 25.474071 L 24.903202,99.5319 h -2.426193 v 4.94753 l 0.970478,-3.8058 h 6.641108 l -1.018049,3.93901 q -0.05709,0.22835 -0.209319,0.333 -0.152233,0.10468 -0.390095,0.10468 z m 0.599414,-0.57087 h 5.442283 l 0.799215,-3.23493 h -5.442283 z m 0,0 0.799215,-3.23493 z m -0.599414,-4.37666 V 99.5319 Z"
       id="path141-3-0-0-4"
       style="stroke-width:0.190289" /><text
       xml:space="preserve"
       style="font-size:2.53719px;font-family:Roboto;-inkscape-font-specification:'Roboto, Normal';fill:#000000;fill-opacity:1;stroke:none;stroke-width:0.586092;stroke-linecap:square;stroke-linejoin:round;stroke-dasharray:none;stroke-opacity:1"
       x="32.499611"
       y="102.77782"
       id="text3361-0-0-3"><tspan
         sodipodi:role="line"
         id="tspan3359-5-5-1"
         style="stroke-width:0.586092"
         x="32.499611"
         y="102.77782">beta</tspan></text><path
       d="m 32.39605,113.13155 q -0.218832,0 -0.394851,-0.17602 -0.176017,-0.17602 -0.176017,-0.39484 v -4.94754 q 0,-0.21883 0.176017,-0.39484 0.176019,-0.17602 0.394851,-0.17602 h 2.67357 l 0.570869,0.57086 h 3.225409 q 0.218833,0 0.39485,0.17602 0.176019,0.17601 0.176019,0.39485 h -4.043655 l -0.570869,-0.57087 H 32.39605 v 4.94754 l 0.970478,-3.8058 h 6.641108 l -1.018049,3.939 q -0.05709,0.22835 -0.209319,0.33301 -0.152233,0.10468 -0.390095,0.10468 z m 0.599414,-0.57086 h 5.442283 l 0.799215,-3.23494 h -5.442283 z m 0,0 0.799215,-3.23494 z m -0.599414,-4.37667 v -0.57087 z"
       id="path141-3-0-0-3-7"
       style="stroke-width:0.190289" /><text
       xml:space="preserve"
       style="font-size:2.53719px;font-family:Roboto;-inkscape-font-specification:'Roboto, Normal';fill:#000000;fill-opacity:1;stroke:none;stroke-width:0.586092;stroke-linecap:square;stroke-linejoin:round;stroke-dasharray:none;stroke-opacity:1"
       x="44.006157"
       y="110.85907"
       id="text3361-0-0-2-9"><tspan
         sodipodi:role="line"
         id="tspan3359-5-5-2-4"
         style="stroke-width:0.586092"
         x="44.006157"
         y="110.85907">Data</tspan></text><path
       d="m 32.39605,122.32278 q -0.218832,0 -0.394851,-0.17602 -0.176017,-0.17602 -0.176017,-0.39485 v -4.94753 q 0,-0.21884 0.176017,-0.39485 0.176019,-0.17602 0.394851,-0.17602 h 2.67357 l 0.570869,0.57087 h 3.225409 q 0.218833,0 0.39485,0.17602 0.176019,0.17601 0.176019,0.39484 h -4.043655 l -0.570869,-0.57086 H 32.39605 v 4.94753 l 0.970478,-3.8058 h 6.641108 l -1.018049,3.939 q -0.05709,0.22835 -0.209319,0.33301 -0.152233,0.10468 -0.390095,0.10468 z m 0.599414,-0.57087 h 5.442283 l 0.799215,-3.23493 h -5.442283 z m 0,0 0.799215,-3.23493 z m -0.599414,-4.37667 v -0.57086 z"
       id="path141-3-0-0-3-5-7"
       style="stroke-width:0.190289" /><text
       xml:space="preserve"
       style="font-size:2.53719px;font-family:Roboto;-inkscape-font-specification:'Roboto, Normal';fill:#000000;fill-opacity:1;stroke:none;stroke-width:0.586092;stroke-linecap:square;stroke-linejoin:round;stroke-dasharray:none;stroke-opacity:1"
       x="44.006157"
       y="119.97725"
       id="text3361-0-0-2-1-0"><tspan
         sodipodi:role="line"
         id="tspan3359-5-5-2-3-1"
         style="stroke-width:0.586092"
         x="44.006157"
         y="119.97725">Export</tspan></text><path
       style="fill:#000000;fill-opacity:1;stroke:#000000;stroke-width:0.586092;stroke-linecap:square;stroke-linejoin:round;stroke-dasharray:none;stroke-opacity:1"
       d="M 22.183699,102.22221 H 15.969293"
       id="path3598-8-1" /><path
       style="fill:#000000;fill-opacity:1;stroke:#000000;stroke-width:0.586092;stroke-linecap:square;stroke-linejoin:round;stroke-dasharray:none;stroke-opacity:1"
       d="m 25.471115,105.08279 0.139661,32.5778"
       id="path3596-4-0-5"
       sodipodi:nodetypes="cc" /><path
       style="fill:#000000;fill-opacity:1;stroke:#000000;stroke-width:0.586092;stroke-linecap:square;stroke-linejoin:round;stroke-dasharray:none;stroke-opacity:1"
       d="M 31.825182,110.08692 H 25.610776"
       id="path3598-8-3-2" /><path
       d="m 32.39605,131.514 q -0.218832,0 -0.394851,-0.17602 -0.176017,-0.17602 -0.176017,-0.39484 v -4.94754 q 0,-0.21883 0.176017,-0.39484 0.176019,-0.17602 0.394851,-0.17602 h 2.67357 l 0.570869,0.57086 h 3.225409 q 0.218833,0 0.39485,0.17602 0.176019,0.17601 0.176019,0.39485 H 35.393112 L 34.822243,125.9956 H 32.39605 v 4.94754 l 0.970478,-3.8058 h 6.641108 l -1.018049,3.939 q -0.05709,0.22835 -0.209319,0.33301 -0.152233,0.10467 -0.390095,0.10467 z m 0.599414,-0.57086 h 5.442283 l 0.799215,-3.23494 h -5.442283 z m 0,0 0.799215,-3.23494 z m -0.599414,-4.37667 v -0.57087 z"
       id="path141-3-0-0-3-9-2"
       style="stroke-width:0.190289" /><text
       xml:space="preserve"
       style="font-size:2.53719px;font-family:Roboto;-inkscape-font-specification:'Roboto, Normal';fill:#000000;fill-opacity:1;stroke:none;stroke-width:0.586092;stroke-linecap:square;stroke-linejoin:round;stroke-dasharray:none;stroke-opacity:1"
       x="44.006157"
       y="129.39029"
       id="text3361-0-0-2-5-2"><tspan
         sodipodi:role="line"
         id="tspan3359-5-5-2-31-4"
         style="stroke-width:0.586092"
         x="44.006157"
         y="129.39029">Backup</tspan></text><path
       d="m 32.39605,140.70523 q -0.218832,0 -0.394851,-0.17602 -0.176017,-0.17602 -0.176017,-0.39484 v -4.94754 q 0,-0.21884 0.176017,-0.39485 0.176019,-0.17602 0.394851,-0.17602 h 2.67357 l 0.570869,0.57087 h 3.225409 q 0.218833,0 0.39485,0.17602 0.176019,0.17601 0.176019,0.39484 h -4.043655 l -0.570869,-0.57086 H 32.39605 v 4.94754 l 0.970478,-3.80581 h 6.641108 l -1.018049,3.93901 q -0.05709,0.22835 -0.209319,0.33301 -0.152233,0.10467 -0.390095,0.10467 z m 0.599414,-0.57086 h 5.442283 l 0.799215,-3.23494 h -5.442283 z m 0,0 0.799215,-3.23494 z m -0.599414,-4.37668 v -0.57086 z"
       id="path141-3-0-0-3-9-0-9"
       style="stroke-width:0.190289" /><text
       xml:space="preserve"
       style="font-size:2.53719px;font-family:Roboto;-inkscape-font-specification:'Roboto, Normal';fill:#000000;fill-opacity:1;stroke:none;stroke-width:0.586092;stroke-linecap:square;stroke-linejoin:round;stroke-dasharray:none;stroke-opacity:1"
       x="44.006157"
       y="138.9619"
       id="text3361-0-0-2-5-6-7"><tspan
         sodipodi:role="line"
         id="tspan3359-5-5-2-31-1-7"
         style="stroke-width:0.586092"
         x="44.006157"
         y="138.9619">Misc</tspan></text><path
       style="fill:#000000;fill-opacity:1;stroke:#000000;stroke-width:0.586;stroke-linecap:square;stroke-linejoin:round;stroke-dasharray:none;stroke-opacity:1"
       d="M 15.969293,57.222773 V 102.22221"
       id="path5830" /><ellipse
       style="fill:none;fill-opacity:1;stroke:#000000;stroke-width:0.566922;stroke-linecap:square;stroke-linejoin:round;stroke-dasharray:none;stroke-opacity:1"
       id="path5236"
       cx="67.474602"
       cy="23.457901"
       rx="2.6941667"
       ry="2.8053761" /><text
       xml:space="preserve"
       style="font-style:normal;font-variant:normal;font-weight:normal;font-stretch:normal;font-size:4.54928px;font-family:Arial;-inkscape-font-specification:'Arial, Normal';font-variant-ligatures:normal;font-variant-caps:normal;font-variant-numeric:normal;font-variant-east-asian:normal;fill:#000000;fill-opacity:1;stroke:none;stroke-width:1.05089;stroke-linecap:square;stroke-linejoin:round;stroke-dasharray:none;stroke-opacity:1"
       x="66.379486"
       y="25.082802"
       id="text5262"><tspan
         sodipodi:role="line"
         id="tspan5260"
         style="font-style:normal;font-variant:normal;font-weight:normal;font-stretch:normal;font-size:4.54928px;font-family:Arial;-inkscape-font-specification:'Arial, Normal';font-variant-ligatures:normal;font-variant-caps:normal;font-variant-numeric:normal;font-variant-east-asian:normal;fill:#000000;fill-opacity:1;stroke:none;stroke-width:1.05089"
         x="66.379486"
         y="25.082802">1</tspan></text><g
       id="g9380"><g
         id="g9374"><ellipse
           style="fill:none;fill-opacity:1;stroke:#000000;stroke-width:0.566922;stroke-linecap:square;stroke-linejoin:round;stroke-dasharray:none;stroke-opacity:1"
           id="path5236-7"
           cx="66.87484"
           cy="65.884415"
           rx="2.6941667"
           ry="2.8053761" /><text
           xml:space="preserve"
           style="font-style:normal;font-variant:normal;font-weight:normal;font-stretch:normal;font-size:4.54928px;font-family:Arial;-inkscape-font-specification:'Arial, Normal';font-variant-ligatures:normal;font-variant-caps:normal;font-variant-numeric:normal;font-variant-east-asian:normal;fill:#000000;fill-opacity:1;stroke:none;stroke-width:1.05089;stroke-linecap:square;stroke-linejoin:round;stroke-dasharray:none;stroke-opacity:1"
           x="65.779724"
           y="67.509315"
           id="text5262-5"><tspan
             sodipodi:role="line"
             id="tspan5260-8"
             style="font-style:normal;font-variant:normal;font-weight:normal;font-stretch:normal;font-size:4.54928px;font-family:Arial;-inkscape-font-specification:'Arial, Normal';font-variant-ligatures:normal;font-variant-caps:normal;font-variant-numeric:normal;font-variant-east-asian:normal;fill:#000000;fill-opacity:1;stroke:none;stroke-width:1.05089"
             x="65.779724"
             y="67.509315">2</tspan></text></g></g><g
       id="g9400"
       transform="translate(0,0.85765618)"><ellipse
         style="fill:none;fill-opacity:1;stroke:#000000;stroke-width:0.566922;stroke-linecap:square;stroke-linejoin:round;stroke-dasharray:none;stroke-opacity:1"
         id="path5236-4"
         cx="66.874832"
         cy="73.868286"
         rx="2.6941667"
         ry="2.8053761" /><g
         id="g9384"><text
           xml:space="preserve"
           style="font-style:normal;font-variant:normal;font-weight:normal;font-stretch:normal;font-size:4.54928px;font-family:Arial;-inkscape-font-specification:'Arial, Normal';font-variant-ligatures:normal;font-variant-caps:normal;font-variant-numeric:normal;font-variant-east-asian:normal;fill:#000000;fill-opacity:1;stroke:none;stroke-width:1.05089;stroke-linecap:square;stroke-linejoin:round;stroke-dasharray:none;stroke-opacity:1"
           x="65.779724"
           y="75.493187"
           id="text5262-2"><tspan
             sodipodi:role="line"
             id="tspan5260-5"
             style="font-style:normal;font-variant:normal;font-weight:normal;font-stretch:normal;font-size:4.54928px;font-family:Arial;-inkscape-font-specification:'Arial, Normal';font-variant-ligatures:normal;font-variant-caps:normal;font-variant-numeric:normal;font-variant-east-asian:normal;fill:#000000;fill-opacity:1;stroke:none;stroke-width:1.05089"
             x="65.779724"
             y="75.493187">3</tspan></text></g></g><g
       id="g9389"
       transform="translate(0,0.28614366)"><ellipse
         style="fill:none;fill-opacity:1;stroke:#000000;stroke-width:0.566922;stroke-linecap:square;stroke-linejoin:round;stroke-dasharray:none;stroke-opacity:1"
         id="path5236-0"
         cx="66.874832"
         cy="83.281326"
         rx="2.6941667"
         ry="2.8053761" /><text
         xml:space="preserve"
         style="font-style:normal;font-variant:normal;font-weight:normal;font-stretch:normal;font-size:4.54928px;font-family:Arial;-inkscape-font-specification:'Arial, Normal';font-variant-ligatures:normal;font-variant-caps:normal;font-variant-numeric:normal;font-variant-east-asian:normal;fill:#000000;fill-opacity:1;stroke:none;stroke-width:1.05089;stroke-linecap:square;stroke-linejoin:round;stroke-dasharray:none;stroke-opacity:1"
         x="65.779724"
         y="84.906227"
         id="text5262-7"><tspan
           sodipodi:role="line"
           id="tspan5260-0"
           style="font-style:normal;font-variant:normal;font-weight:normal;font-stretch:normal;font-size:4.54928px;font-family:Arial;-inkscape-font-specification:'Arial, Normal';font-variant-ligatures:normal;font-variant-caps:normal;font-variant-numeric:normal;font-variant-east-asian:normal;fill:#000000;fill-opacity:1;stroke:none;stroke-width:1.05089"
           x="65.779724"
           y="84.906227">4</tspan></text></g><ellipse
       style="fill:none;fill-opacity:1;stroke:#000000;stroke-width:0.566922;stroke-linecap:square;stroke-linejoin:round;stroke-dasharray:none;stroke-opacity:1"
       id="path5236-76"
       cx="66.87484"
       cy="92.36235"
       rx="2.6941667"
       ry="2.8053761" /><text
       xml:space="preserve"
       style="font-style:normal;font-variant:normal;font-weight:normal;font-stretch:normal;font-size:4.54928px;font-family:Arial;-inkscape-font-specification:'Arial, Normal';font-variant-ligatures:normal;font-variant-caps:normal;font-variant-numeric:normal;font-variant-east-asian:normal;fill:#000000;fill-opacity:1;stroke:none;stroke-width:1.05089;stroke-linecap:square;stroke-linejoin:round;stroke-dasharray:none;stroke-opacity:1"
       x="65.779724"
       y="93.987251"
       id="text5262-8"><tspan
         sodipodi:role="line"
         id="tspan5260-2"
         style="font-style:normal;font-variant:normal;font-weight:normal;font-stretch:normal;font-size:4.54928px;font-family:Arial;-inkscape-font-specification:'Arial, Normal';font-variant-ligatures:normal;font-variant-caps:normal;font-variant-numeric:normal;font-variant-east-asian:normal;fill:#000000;fill-opacity:1;stroke:none;stroke-width:1.05089"
         x="65.779724"
         y="93.987251">5</tspan></text></g></svg>
